<svg width="68" height="93" viewBox="0 0 68 93" fill="none" xmlns="http://www.w3.org/2000/svg">
<path d="M32.6141 86.1L32.6641 83.2H14.9141V85.2L32.6141 86.1Z" fill="#916B4E"/>
<path d="M32.6141 92.85V86.1L14.9141 85.2L16.4641 87.85H14.9141C13.7141 88.45 12.6307 89.4 11.6641 90.7V92.85H32.6141Z" fill="#AA7E5C"/>
<path d="M32.6641 83.2V79.8H14.9141V83.2H32.6641Z" fill="#E0C1A2"/>
<path d="M30.1141 72.35C28.3807 70.6833 26.2807 69.85 23.8141 69.85H23.7641C21.2974 69.85 19.2141 70.6833 17.5141 72.35C15.7807 74.05 14.9141 76.1166 14.9141 78.55V79.8H32.6641V78.55C32.6641 76.1166 31.8141 74.05 30.1141 72.35Z" fill="#ECCFB1"/>
<path d="M35.864 86.1L35.814 83.2H53.564V85.2L35.864 86.1Z" fill="#916B4E"/>
<path d="M35.864 92.85V86.1L53.564 85.2L52.014 87.85H53.564C54.764 88.45 55.8473 89.4 56.814 90.7V92.85H35.864Z" fill="#AA7E5C"/>
<path d="M35.814 83.2V79.8H53.564V83.2H35.814Z" fill="#E0C1A2"/>
<path d="M38.364 72.35C40.0973 70.6833 42.1973 69.85 44.664 69.85H44.714C47.1806 69.85 49.264 70.6833 50.964 72.35C52.6973 74.05 53.564 76.1166 53.564 78.55V79.8H35.814V78.55C35.814 76.1166 36.664 74.05 38.364 72.35Z" fill="#ECCFB1"/>
<path d="M54.2642 78.15V74.1H28.6642H17.7142H15.2642V78.15H54.2642ZM23.1642 49.55C22.7308 48.7834 22.2308 47.9834 21.6642 47.15H15.2642V64.6C23.8642 63.1334 27.0308 59.25 24.7642 52.95L22.4642 51.75C22.5642 50.9834 22.7975 50.25 23.1642 49.55ZM54.2642 47.15H48.1642C49.0975 49.25 49.2975 51.45 48.7642 53.75C47.9642 57.85 49.7975 60.4667 54.2642 61.6V47.15Z" fill="#B8824D"/>
<path d="M36.8641 59.05L48.1641 47.15H24.9641L36.8641 59.05Z" fill="#E0C79A"/>
<path d="M48.7641 53.75C49.2974 51.45 49.0974 49.25 48.1641 47.15L36.8641 59.05L48.7641 53.75ZM23.1641 49.55C22.7974 50.25 22.5641 50.9834 22.4641 51.75L24.7641 52.95L36.8641 59.05L24.9641 47.15C24.1974 47.8834 23.5974 48.6834 23.1641 49.55Z" fill="#637480"/>
<path d="M24.7642 52.95C27.0308 59.25 23.8642 63.1334 15.2642 64.6V74.1H17.7142L24.9642 69.05L28.6642 74.1H54.2642V61.6C49.7975 60.4667 47.9642 57.85 48.7642 53.75L36.8642 59.05L24.7642 52.95ZM38.0142 62.65C37.6808 62.35 37.5142 62 37.5142 61.6C37.5142 61.2 37.6808 60.8334 38.0142 60.5C38.3142 60.2 38.6642 60.05 39.0642 60.05C39.4642 60.05 39.8142 60.2 40.1142 60.5C40.4142 60.8334 40.5642 61.2 40.5642 61.6C40.5642 62 40.4142 62.35 40.1142 62.65C39.8142 62.95 39.4642 63.1 39.0642 63.1C38.6642 63.1 38.3142 62.95 38.0142 62.65ZM36.6642 66.95C39.0642 66.95 41.1142 67.1667 42.8142 67.6C44.3475 68.0334 45.1975 68.5167 45.3642 69.05H28.0142C28.1475 68.5167 28.9808 68.0334 30.5142 67.6C32.2142 67.1667 34.2642 66.95 36.6642 66.95ZM21.6642 47.15C22.2308 47.9834 22.7308 48.7834 23.1642 49.55C23.5975 48.6834 24.1975 47.8834 24.9642 47.15H21.6642Z" fill="#7E95A3"/>
<path d="M42.8142 67.6C41.1142 67.1667 39.0642 66.95 36.6642 66.95C34.2642 66.95 32.2142 67.1667 30.5142 67.6C28.9808 68.0333 28.1475 68.5167 28.0142 69.05H45.3642C45.1975 68.5167 44.3475 68.0333 42.8142 67.6Z" fill="#738895"/>
<path d="M37.5141 61.6C37.5141 62 37.6808 62.35 38.0141 62.65C38.3141 62.95 38.6641 63.1 39.0641 63.1C39.4641 63.1 39.8141 62.95 40.1141 62.65C40.4141 62.35 40.5641 62 40.5641 61.6C40.5641 61.2 40.4141 60.8334 40.1141 60.5C39.8141 60.2 39.4641 60.05 39.0641 60.05C38.6641 60.05 38.3141 60.2 38.0141 60.5C37.6808 60.8334 37.5141 61.2 37.5141 61.6ZM24.9641 69.05L17.7141 74.1H28.6641L24.9641 69.05Z" fill="#E7E2DA"/>
<path d="M19.3482 62.4845C19.3835 62.4309 19.4151 62.3771 19.4432 62.3231L5.68149 56.1133C4.21292 57.1806 3.69647 58.7862 4.13212 60.9301L5.19305 61.0275L19.3482 62.4845Z" fill="#E7E2DA"/>
<path d="M19.9027 62.5396L21.0746 60.0975L6.86499 53.6276C5.93443 53.752 5.53989 54.5806 5.68137 56.1133L19.4431 62.3231L19.9027 62.5396Z" fill="#637480"/>
<path d="M5.19312 61.0275C4.09881 64.1121 3.24193 67.2458 2.62247 70.4288C4.13499 72.6403 6.27397 74.3812 9.03941 75.6516C13.2904 71.8915 16.7267 67.5025 19.3483 62.4844L5.19312 61.0275Z" fill="#FFE0B1"/>
<path d="M22.7257 51.6177C21.9548 49.7294 20.5818 48.3494 18.6068 47.4777L18.5585 47.4648C18.1877 47.3031 17.8252 47.1749 17.4711 47.08C14.2425 46.1215 10.7072 48.3041 6.8652 53.6277L21.0749 60.0976L22.5435 57.1277C23.4281 55.3716 23.4888 53.5349 22.7257 51.6177Z" fill="#7E95A3"/>
<path d="M16.4258 77.5312C16.1208 74.033 15.3692 71.3643 14.1711 69.5249L4.18994 69.4905C3.36544 69.4767 2.93878 69.8455 2.90998 70.597L2.91253 71.167C2.56351 79.4247 4.76592 83.5692 9.51975 83.6006C11.2009 83.6369 12.9221 83.4597 14.6833 83.0688C15.8516 82.8297 16.4427 82.2979 16.4566 81.4734L16.473 81.219C16.4656 80.2163 16.4496 79.2457 16.4249 78.3074L16.412 78.3557L16.4258 77.5312ZM4.1181 73.043C4.16355 72.7445 4.61693 72.4692 5.47825 72.2168C6.30737 71.9558 7.32105 71.7788 8.51929 71.6858C9.7411 71.6335 10.7513 71.6626 11.5499 71.7731C12.4043 71.933 12.8131 72.146 12.7763 72.4123C12.7631 72.7193 12.3419 73.0033 11.5127 73.2643C10.675 73.5574 9.6409 73.7462 8.41047 73.8307C7.21223 73.9237 6.20201 73.8946 5.37982 73.7434C4.52543 73.5835 4.10486 73.35 4.1181 73.043Z" fill="#FFE0B1"/>
<path d="M5.47828 72.2168C4.61696 72.4691 4.16358 72.7445 4.11813 73.0429C4.10489 73.35 4.52546 73.5834 5.37985 73.7433C6.20204 73.8946 7.21226 73.9237 8.4105 73.8307C9.64093 73.7462 10.675 73.5574 11.5128 73.2642C12.3419 73.0033 12.7631 72.7193 12.7763 72.4122C12.8131 72.146 12.4044 71.933 11.55 71.7731C10.7513 71.6626 9.74113 71.6335 8.51932 71.6857C7.32108 71.7788 6.3074 71.9558 5.47828 72.2168ZM16.4249 78.3073C19.1717 76.041 18.4204 73.1135 14.1711 69.5248C15.3692 71.3643 16.1208 74.033 16.4259 77.5311L16.412 78.3556L16.4249 78.3073Z" fill="#E7CBA0"/>
<path d="M47.6298 61.4845C47.5946 61.4309 47.5629 61.3771 47.5348 61.3231L61.2965 55.1133C62.7651 56.1806 63.2816 57.7862 62.8459 59.9301L61.785 60.0275L47.6298 61.4845Z" fill="#E7E2DA"/>
<path d="M47.0753 61.5396L45.9034 59.0975L60.113 52.6276C61.0436 52.752 61.4381 53.5806 61.2967 55.1133L47.5349 61.3231L47.0753 61.5396Z" fill="#637480"/>
<path d="M61.7849 60.0275C62.8792 63.1121 63.7361 66.2458 64.3556 69.4288C62.843 71.6403 60.7041 73.3812 57.9386 74.6516C53.6876 70.8915 50.2513 66.5025 47.6298 61.4844L61.7849 60.0275Z" fill="#FFE0B1"/>
<path d="M44.2523 50.6177C45.0232 48.7294 46.3962 47.3494 48.3712 46.4777L48.4195 46.4648C48.7903 46.3031 49.1528 46.1749 49.507 46.08C52.7356 45.1215 56.2709 47.3041 60.1128 52.6277L45.9032 59.0976L44.4345 56.1277C43.5499 54.3716 43.4892 52.5349 44.2523 50.6177Z" fill="#7E95A3"/>
<path d="M50.6022 76.9812C50.9073 73.4831 51.6589 70.8143 52.857 68.9749L62.8381 68.9405C63.6626 68.9267 64.0893 69.2955 64.1181 70.047L64.1155 70.617C64.4646 78.8747 62.2622 83.0192 57.5083 83.0506C55.8271 83.087 54.1059 82.9097 52.3448 82.5189C51.1764 82.2797 50.5853 81.7479 50.5715 80.9234L50.5551 80.669C50.5625 79.6663 50.5785 78.6957 50.6032 77.7574L50.6161 77.8057L50.6022 76.9812ZM62.91 72.493C62.8645 72.1946 62.4111 71.9192 61.5498 71.6668C60.7207 71.4059 59.707 71.2288 58.5088 71.1358C57.287 71.0835 56.2768 71.1127 55.4781 71.2231C54.6237 71.383 54.215 71.5961 54.2518 71.8623C54.265 72.1693 54.6862 72.4533 55.5153 72.7143C56.3531 73.0075 57.3872 73.1963 58.6176 73.2807C59.8158 73.3737 60.8261 73.3446 61.6483 73.1934C62.5026 73.0335 62.9232 72.8 62.91 72.493Z" fill="#FFE0B1"/>
<path d="M61.5498 71.6668C62.4111 71.9192 62.8645 72.1945 62.9099 72.4929C62.9232 72.8 62.5026 73.0334 61.6482 73.1933C60.826 73.3446 59.8158 73.3737 58.6176 73.2807C57.3871 73.1962 56.3531 73.0074 55.5153 72.7143C54.6862 72.4533 54.265 72.1693 54.2518 71.8622C54.2149 71.596 54.6237 71.383 55.4781 71.2231C56.2767 71.1126 57.2869 71.0835 58.5088 71.1358C59.707 71.2288 60.7207 71.4058 61.5498 71.6668ZM50.6031 77.7574C47.8564 75.491 48.6076 72.5635 52.857 68.9749C51.6589 70.8143 50.9073 73.483 50.6022 76.9812L50.6161 77.8057L50.6031 77.7574Z" fill="#E7CBA0"/>
<path d="M33.6141 54.2501C36.4141 54.2501 38.7975 53.6 40.7642 52.3C41.9308 51.5334 42.7475 50.6667 43.2142 49.7001H24.0142C24.4808 50.6667 25.2975 51.5334 26.4642 52.3C28.4308 53.6 30.8141 54.2501 33.6141 54.2501Z" fill="#D7BD93"/>
<path d="M52.9642 45.15C52.9975 44.9834 53.0308 44.8334 53.0642 44.7001C53.4308 42.1667 53.6475 39.6167 53.7142 37.05C52.9475 41.1834 51.0141 42.7167 47.9141 41.65C43.8141 39.8834 39.0308 39.0001 33.5642 39.0001C29.4642 39.0001 25.7642 39.5001 22.4642 40.5001C21.6642 40.7334 20.8808 41 20.1142 41.3C16.6475 42.9 13.8308 39.9501 11.6641 32.4501C11.4975 36.6834 11.7308 40.9334 12.3642 45.2001C12.4308 45.5667 12.5142 45.9001 12.6142 46.2001C12.7142 46.6667 12.8808 47.0834 13.1142 47.4501C13.9475 48.9501 15.3975 49.7001 17.4642 49.7001H24.0142H43.2142H47.8142C50.6142 49.7001 52.2975 48.3667 52.8642 45.7001C52.8975 45.5001 52.9309 45.3167 52.9642 45.15Z" fill="#E7E2DA"/>
<path d="M12.3641 24.6C11.9974 27.2 11.7641 29.8167 11.6641 32.4501C13.8307 39.9501 16.6474 42.9 20.1141 41.3C20.8807 41 21.6641 40.7334 22.4641 40.5001C25.7641 39.5001 29.4641 39.0001 33.5641 39.0001C39.0308 39.0001 43.8141 39.8834 47.9141 41.65C51.0141 42.7167 52.9474 41.1834 53.7141 37.05C53.7474 35.25 53.7307 33.4334 53.6641 31.6C53.5307 29.2667 53.2807 26.9001 52.9141 24.5001C52.4807 21.5334 50.7808 20.05 47.8141 20.05H17.4641C14.5308 20.05 12.8307 21.5667 12.3641 24.6Z" fill="#FFE0B1"/>
<path d="M41.7141 27.55L41.0641 30.75H49.8641C48.0307 28.45 45.3141 27.3834 41.7141 27.55ZM30.2141 31.85L29.5641 28.65C25.9641 28.4834 23.2474 29.55 21.4141 31.85H30.2141Z" fill="#544B4B"/>
<path d="M25.214 34.0001C25.1473 34.3001 25.114 34.6167 25.114 34.9501C25.114 35.8167 25.314 36.5501 25.714 37.1501C25.814 37.2834 25.914 37.4001 26.014 37.5001C26.3807 37.9001 26.7973 38.1001 27.264 38.1001C27.7307 38.1001 28.1473 37.9001 28.514 37.5001C28.614 37.4001 28.6973 37.2834 28.764 37.1501C29.1973 36.5501 29.414 35.8167 29.414 34.9501C29.414 34.6167 29.3807 34.3001 29.314 34.0001H25.214ZM46.264 34.9501C46.264 34.6167 46.2307 34.3001 46.164 34.0001H42.064C41.9973 34.3001 41.964 34.6167 41.964 34.9501C41.964 35.8167 42.164 36.5501 42.564 37.1501C42.664 37.2834 42.764 37.4001 42.864 37.5001C43.2307 37.9001 43.6473 38.1001 44.114 38.1001C44.5807 38.1001 44.9973 37.9001 45.364 37.5001C45.464 37.4001 45.5473 37.2834 45.614 37.1501C46.0473 36.5501 46.264 35.8167 46.264 34.9501ZM40.664 40.7001C40.464 40.5667 40.264 40.5001 40.064 40.5001H37.214V43.5001H30.214C30.414 43.8334 30.664 44.1334 30.964 44.4001C32.164 45.6001 33.5807 46.2001 35.214 46.2001C36.8473 46.2001 38.2473 45.6167 39.414 44.4501L39.464 44.4001C39.964 43.9001 40.364 43.3501 40.664 42.7501C40.8307 42.4501 40.964 42.1334 41.064 41.8001C41.0973 41.5667 41.0807 41.3667 41.014 41.2001C40.9473 40.9667 40.8307 40.8001 40.664 40.7001Z" fill="#7F7058"/>
<path d="M25.114 34.9501C25.114 34.6167 25.1473 34.3001 25.214 34.0001H22.964C22.8973 34.3001 22.864 34.6167 22.864 34.9501C22.864 35.9501 23.164 36.8001 23.764 37.5001C23.7973 37.5334 23.8307 37.5667 23.864 37.6001C24.5973 38.3667 25.4807 38.7501 26.514 38.7501C27.5473 38.7501 28.3973 38.3667 29.064 37.6001C29.0973 37.5667 29.1307 37.5334 29.164 37.5001C29.8307 36.8001 30.164 35.9501 30.164 34.9501C30.164 34.6167 30.1307 34.3001 30.064 34.0001H29.314C29.3807 34.3001 29.414 34.6167 29.414 34.9501C29.414 35.8167 29.1973 36.5501 28.764 37.1501C28.6973 37.2834 28.614 37.4001 28.514 37.5001C28.1473 37.9001 27.7307 38.1001 27.264 38.1001C26.7973 38.1001 26.3807 37.9001 26.014 37.5001C25.914 37.4001 25.814 37.2834 25.714 37.1501C25.314 36.5501 25.114 35.8167 25.114 34.9501ZM46.164 34.0001C46.2307 34.3001 46.264 34.6167 46.264 34.9501C46.264 35.8167 46.0473 36.5501 45.614 37.1501C45.5473 37.2834 45.464 37.4001 45.364 37.5001C44.9973 37.9001 44.5807 38.1001 44.114 38.1001C43.6473 38.1001 43.2307 37.9001 42.864 37.5001C42.764 37.4001 42.664 37.2834 42.564 37.1501C42.164 36.5501 41.964 35.8167 41.964 34.9501C41.964 34.6167 41.9973 34.3001 42.064 34.0001H41.564C41.4973 34.3001 41.464 34.6167 41.464 34.9501C41.464 35.9501 41.764 36.8001 42.364 37.5001C42.3973 37.5334 42.4307 37.5667 42.464 37.6001C43.1973 38.3667 44.0807 38.7501 45.114 38.7501C46.1473 38.7501 46.9973 38.3667 47.664 37.6001C47.6973 37.5667 47.7307 37.5334 47.764 37.5001C48.4307 36.8001 48.764 35.9501 48.764 34.9501C48.764 34.6167 48.7307 34.3001 48.664 34.0001H46.164ZM37.214 43.5001V40.5001H30.364C30.164 40.5001 29.9807 40.5667 29.814 40.7001C29.614 40.8001 29.4807 40.9667 29.414 41.2001C29.3473 41.3667 29.3473 41.5667 29.414 41.8001C29.4807 42.1334 29.5973 42.4501 29.764 42.7501C29.8973 43.0167 30.0473 43.2667 30.214 43.5001H37.214Z" fill="white"/>
<path d="M35.8641 23.25C40.6708 24.3075 45.8208 24.3741 51.3141 23.45L47.2141 4.70004C47.3546 3.29522 47.7213 2.26189 48.3141 1.60004C33.9758 5.21879 23.8592 12.2521 17.9641 22.7C21.5194 20.8677 25.2195 20.3844 29.0641 21.25C31.0773 21.8321 32.7773 23.0154 34.1641 24.8L35.8641 23.25Z" fill="#544B4B"/>
<path d="M47.2141 4.70002L51.3141 23.45L53.7141 31.6L54.8141 14.85L47.2141 4.70002ZM48.3141 1.60002C48.7172 1.17281 49.2172 0.906145 49.8141 0.800025C44.0808 -0.0333081 37.4308 0.983358 29.8641 3.85002C29.6975 3.88336 29.5308 3.93336 29.3641 4.00002C25.5641 5.13336 21.2141 6.83336 16.3141 9.10002L15.0641 12.2L11.9641 10.85L8.96412 17.6C7.09745 22.6 8.09745 29.2667 11.9641 37.6L17.9641 22.7C23.8592 12.2521 33.9758 5.21877 48.3141 1.60002Z" fill="#5D5454"/>
</svg>
