<svg width="80" height="80" viewBox="0 0 80 80" fill="none" xmlns="http://www.w3.org/2000/svg">
<path d="M63 21C51.6667 9.66667 44 4 40 4C36 4 28.3333 9.66667 17 21C7.33334 30.7333 1.78334 37.75 0.350006 42.05C0.416673 42.2167 0.48334 42.4 0.550007 42.6C2.21667 46.9667 7.70001 53.7667 17 63C28.3 74.3333 35.9667 80 40 80C44 80 51.6667 74.3333 63 63C72.3 53.7667 77.8 46.9667 79.5 42.6C79.5667 42.4333 79.6167 42.2667 79.65 42.1C78.2833 37.8 72.7333 30.7667 63 21Z" fill="url(#paint0_linear_12_77)"/>
<path d="M63 17C51.6667 5.66667 44 0 40 0C36 0 28.3333 5.66667 17 17C5.66667 28.4 0 36.0667 0 40C0 40.6 0.116665 41.2833 0.349998 42.05C1.78333 37.75 7.33333 30.7333 17 21C28.3333 9.66667 36 4 40 4C44 4 51.6667 9.66667 63 21C72.7333 30.7667 78.2833 37.8 79.65 42.1C79.8833 41.3 80 40.6 80 40C80 36.0667 74.3333 28.4 63 17Z" fill="url(#paint1_linear_12_77)"/>
<path d="M16.3115 29.8615C16.7449 30.1282 17.2449 30.1949 17.8115 30.0615L33.2615 25.9115C33.7949 25.7782 34.2115 25.4782 34.5115 25.0115C34.7449 24.5449 34.7782 24.0282 34.6115 23.4615L34.3615 22.5115C34.2282 21.9449 33.9449 21.5449 33.5115 21.3115C33.0115 21.0115 32.4949 20.9282 31.9615 21.0615L16.5115 25.2115C15.9449 25.3449 15.5449 25.6615 15.3115 26.1615C15.0115 26.5949 14.9282 27.0949 15.0615 27.6615L15.3115 28.6115C15.4782 29.1782 15.8115 29.5949 16.3115 29.8615Z" fill="#3D465D"/>
<path d="M45.1615 25.0615C45.4282 25.5282 45.8282 25.8282 46.3615 25.9615L61.8115 30.1115C62.3782 30.2449 62.8949 30.1949 63.3615 29.9615C63.8282 29.6615 64.1449 29.2282 64.3115 28.6615L64.5615 27.7115C64.6949 27.1449 64.6282 26.6615 64.3615 26.2615C64.0949 25.7282 63.6782 25.3949 63.1115 25.2615L47.6615 21.1115C47.1282 20.9782 46.6282 21.0615 46.1615 21.3615C45.6949 21.5949 45.3949 21.9949 45.2615 22.5615L45.0115 23.5115C44.8449 24.0782 44.8949 24.5949 45.1615 25.0615Z" fill="#3D465D"/>
<path d="M16.8115 34.1115C16.8115 34.6782 17.0115 35.1615 17.4115 35.5615L21.9615 40.1115L17.4115 44.7115C17.0115 45.0782 16.8115 45.5449 16.8115 46.1115C16.8115 46.6782 17.0115 47.1615 17.4115 47.5615C17.7782 47.9282 18.2449 48.1115 18.8115 48.1115C19.3782 48.1115 19.8615 47.9282 20.2615 47.5615L24.8115 42.9615L29.4115 47.5615C29.7782 47.9282 30.2449 48.1115 30.8115 48.1115C31.3782 48.1115 31.8615 47.9282 32.2615 47.5615C32.6282 47.1615 32.8115 46.6782 32.8115 46.1115C32.8115 45.5449 32.6282 45.0782 32.2615 44.7115L27.6615 40.1115L32.2615 35.5615C32.6282 35.1615 32.8115 34.6782 32.8115 34.1115C32.8115 33.5449 32.6282 33.0782 32.2615 32.7115C31.8615 32.3115 31.3782 32.1115 30.8115 32.1115C30.2449 32.1115 29.7782 32.3115 29.4115 32.7115L24.8115 37.2615L20.2615 32.7115C19.8615 32.3115 19.3782 32.1115 18.8115 32.1115C18.2449 32.1115 17.7782 32.3115 17.4115 32.7115C17.0115 33.0782 16.8115 33.5449 16.8115 34.1115ZM46.8115 34.1115C46.8115 34.6782 47.0115 35.1615 47.4115 35.5615L51.9615 40.1115L47.4115 44.7115C47.0115 45.0782 46.8115 45.5449 46.8115 46.1115C46.8115 46.6782 47.0115 47.1615 47.4115 47.5615C47.7782 47.9282 48.2449 48.1115 48.8115 48.1115C49.3782 48.1115 49.8615 47.9282 50.2615 47.5615L54.8115 42.9615L59.4115 47.5615C59.7782 47.9282 60.2449 48.1115 60.8115 48.1115C61.3782 48.1115 61.8615 47.9282 62.2615 47.5615C62.6282 47.1615 62.8115 46.6782 62.8115 46.1115C62.8115 45.5449 62.6282 45.0782 62.2615 44.7115L57.6615 40.1115L62.2615 35.5615C62.6282 35.1615 62.8115 34.6782 62.8115 34.1115C62.8115 33.5449 62.6282 33.0782 62.2615 32.7115C61.8615 32.3115 61.3782 32.1115 60.8115 32.1115C60.2449 32.1115 59.7782 32.3115 59.4115 32.7115L54.8115 37.2615L50.2615 32.7115C49.8615 32.3115 49.3782 32.1115 48.8115 32.1115C48.2449 32.1115 47.7782 32.3115 47.4115 32.7115C47.0115 33.0782 46.8115 33.5449 46.8115 34.1115Z" fill="#3D465D"/>
<path d="M45.6615 57.9615C45.9615 58.1615 46.2449 58.3782 46.5115 58.6115C46.9115 58.9782 47.3949 59.1449 47.9615 59.1115C48.4949 59.0782 48.9449 58.8615 49.3115 58.4615C49.6782 58.0282 49.8449 57.5449 49.8115 57.0115C49.7782 56.4449 49.5615 55.9782 49.1615 55.6115C48.7949 55.3115 48.4115 55.0115 48.0115 54.7115C45.7449 52.9782 43.0115 52.1115 39.8115 52.1115C36.5449 52.1115 33.7615 52.9782 31.4615 54.7115C31.4615 54.7449 31.4449 54.7615 31.4115 54.7615C30.9782 55.0949 30.6115 55.4449 30.3115 55.8115C29.9449 56.2115 29.7782 56.6949 29.8115 57.2615C29.8449 57.7949 30.0782 58.2449 30.5115 58.6115C30.9115 58.9782 31.3949 59.1449 31.9615 59.1115C32.4949 59.0782 32.9449 58.8615 33.3115 58.4615C33.4782 58.2615 33.6615 58.0782 33.8615 57.9115C35.4949 56.7115 37.4782 56.1115 39.8115 56.1115C42.0782 56.1115 44.0115 56.7115 45.6115 57.9115L45.6615 57.9615Z" fill="#3D465D"/>
<defs>
<linearGradient id="paint0_linear_12_77" x1="-230" y1="-1.09798e-07" x2="-230" y2="80" gradientUnits="userSpaceOnUse">
<stop stop-color="#E26081"/>
<stop offset="1" stop-color="#D44947"/>
</linearGradient>
<linearGradient id="paint1_linear_12_77" x1="-230.25" y1="-0.25" x2="-230.25" y2="43.25" gradientUnits="userSpaceOnUse">
<stop stop-color="#F37F98"/>
<stop offset="1" stop-color="#D74854"/>
</linearGradient>
</defs>
</svg>
