<svg width="91" height="91" viewBox="0 0 91 91" fill="none" xmlns="http://www.w3.org/2000/svg">
<path d="M71.6625 23.8875C58.7708 10.9958 50.05 4.55 45.5 4.55C40.95 4.55 32.2292 10.9958 19.3375 23.8875C8.34167 34.9592 2.02855 42.9406 0.398132 47.8319C0.473966 48.0215 0.5498 48.23 0.625633 48.4575C2.52147 53.4246 8.75876 61.1596 19.3375 71.6625C32.1913 84.5542 40.9121 91 45.5 91C50.05 91 58.7708 84.5542 71.6625 71.6625C82.2413 61.1596 88.4975 53.4246 90.4313 48.4575C90.5071 48.2679 90.564 48.0783 90.6019 47.8887C89.0473 42.9975 82.7342 34.9971 71.6625 23.8875Z" fill="url(#paint0_linear_1_949)"/>
<path d="M71.6625 19.3375C58.7708 6.44583 50.05 0 45.5 0C40.95 0 32.2292 6.44583 19.3375 19.3375C6.44583 32.305 0 41.0258 0 45.5C0 46.1825 0.132707 46.9598 0.398123 47.8319C2.02854 42.9406 8.34167 34.9592 19.3375 23.8875C32.2292 10.9958 40.95 4.55 45.5 4.55C50.05 4.55 58.7708 10.9958 71.6625 23.8875C82.7342 34.9971 89.0473 42.9975 90.6019 47.8888C90.8673 46.9788 91 46.1825 91 45.5C91 41.0258 84.5542 32.305 71.6625 19.3375Z" fill="url(#paint1_linear_1_949)"/>
<path d="M30.1615 34.5167C27.3949 34.5167 25.0449 35.5 23.1115 37.4667C21.1449 39.4333 20.1615 41.7833 20.1615 44.5167C20.1615 47.2833 21.1449 49.6333 23.1115 51.5667C25.0449 53.5333 27.3949 54.5167 30.1615 54.5167C32.9282 54.5167 35.2782 53.5333 37.2115 51.5667C39.1782 49.6333 40.1615 47.2833 40.1615 44.5167C40.1615 41.7833 39.1782 39.4333 37.2115 37.4667C35.2782 35.5 32.9282 34.5167 30.1615 34.5167Z" fill="white"/>
<path d="M30.1616 38.5167C28.5282 38.5167 27.1282 39.1167 25.9616 40.3167C24.7616 41.4833 24.1616 42.8833 24.1616 44.5167C24.1616 46.1833 24.7616 47.6 25.9616 48.7667C27.1282 49.9333 28.5282 50.5167 30.1616 50.5167C31.8282 50.5167 33.2449 49.9333 34.4116 48.7667C35.5782 47.6 36.1616 46.1833 36.1616 44.5167C36.1616 42.8833 35.5782 41.4833 34.4116 40.3167C33.2449 39.1167 31.8282 38.5167 30.1616 38.5167Z" fill="#3D465D"/>
<path d="M60.1616 34.5167C57.3949 34.5167 55.0449 35.5 53.1116 37.4667C51.1449 39.4333 50.1616 41.7833 50.1616 44.5167C50.1616 47.2833 51.1449 49.6333 53.1116 51.5667C55.0449 53.5333 57.3949 54.5167 60.1616 54.5167C62.9282 54.5167 65.2782 53.5333 67.2116 51.5667C69.1782 49.6333 70.1616 47.2833 70.1616 44.5167C70.1616 41.7833 69.1782 39.4333 67.2116 37.4667C65.2782 35.5 62.9282 34.5167 60.1616 34.5167Z" fill="white"/>
<path d="M60.1616 38.5167C58.5282 38.5167 57.1282 39.1167 55.9616 40.3167C54.7616 41.4833 54.1616 42.8833 54.1616 44.5167C54.1616 46.1833 54.7616 47.6 55.9616 48.7667C57.1282 49.9333 58.5282 50.5167 60.1616 50.5167C61.8282 50.5167 63.2449 49.9333 64.4116 48.7667C65.5782 47.6 66.1616 46.1833 66.1616 44.5167C66.1616 42.8833 65.5782 41.4833 64.4116 40.3167C63.2449 39.1167 61.8282 38.5167 60.1616 38.5167Z" fill="#3D465D"/>
<path d="M18.3115 38.9167C18.5449 39.3833 18.9449 39.6833 19.5115 39.8167L38.8115 45.0167C39.3449 45.15 39.8615 45.0833 40.3615 44.8167C40.8282 44.55 41.1282 44.1333 41.2615 43.5667L42.3115 39.7167C42.4449 39.15 42.3782 38.65 42.1115 38.2167C41.8115 37.7167 41.3949 37.4 40.8615 37.2667L21.5615 32.0667C20.9949 31.9333 20.4949 32.0167 20.0615 32.3167C19.5615 32.55 19.2449 32.95 19.1115 33.5167L18.0615 37.3667C17.9282 37.9333 18.0115 38.45 18.3115 38.9167Z" fill="#3D465D"/>
<path d="M49.4616 31.2167C48.9282 31.3833 48.5282 31.7167 48.2616 32.2167C47.9616 32.65 47.8782 33.15 48.0116 33.7167L49.0616 37.5667C49.1949 38.1333 49.5116 38.55 50.0116 38.8167C50.4782 39.0833 50.9782 39.1333 51.5116 38.9667L70.8116 33.8167C71.3782 33.6833 71.7949 33.3667 72.0616 32.8667C72.3282 32.4333 72.3949 31.9333 72.2616 31.3667L71.2115 27.5167C71.0782 26.95 70.7782 26.5333 70.3116 26.2667C69.8449 26 69.3282 25.9333 68.7616 26.0667L49.4616 31.2167Z" fill="#3D465D"/>
<path d="M55.1116 58.6667C54.6449 58.3667 54.1282 58.3 53.5616 58.4667C53.0282 58.6 52.6116 58.8833 52.3116 59.3167C52.0449 59.6833 51.6616 60.0333 51.1616 60.3667C49.9282 61.1333 48.4782 61.5167 46.8116 61.5167C46.0449 61.5167 45.3282 61.45 44.6616 61.3167C44.0949 61.2167 43.5782 61.3167 43.1116 61.6167C42.6449 61.85 42.3449 62.25 42.2116 62.8167C42.0782 63.3167 42.1782 63.8 42.5116 64.2667C42.7782 64.6667 43.2116 64.9333 43.8116 65.0667C44.7116 65.2667 45.7116 65.3667 46.8116 65.3667C49.3782 65.3667 51.5949 64.7667 53.4616 63.5667L53.4116 63.6167C54.5449 62.9167 55.3782 62.1333 55.9116 61.2667C56.1782 60.8 56.2449 60.3167 56.1116 59.8167C55.9449 59.2833 55.6116 58.9 55.1116 58.6667Z" fill="#3D465D"/>
<defs>
<linearGradient id="paint0_linear_1_949" x1="45.5" y1="3.08748e-06" x2="45.5" y2="91" gradientUnits="userSpaceOnUse">
<stop stop-color="#A875E9"/>
<stop offset="0.517647" stop-color="#905AE5"/>
<stop offset="1" stop-color="#6548B9"/>
</linearGradient>
<linearGradient id="paint1_linear_1_949" x1="45.5" y1="0.398125" x2="45.5" y2="47.4906" gradientUnits="userSpaceOnUse">
<stop stop-color="#C28DEF"/>
<stop offset="1" stop-color="#A471E8"/>
</linearGradient>
</defs>
</svg>
