<svg width="80" height="80" viewBox="0 0 80 80" fill="none" xmlns="http://www.w3.org/2000/svg">
<path d="M63 21C51.6667 9.66667 44 4 40 4C36 4 28.3333 9.66667 17 21C7.33334 30.7333 1.78334 37.75 0.350006 42.05C0.416673 42.2167 0.48334 42.4 0.550007 42.6C2.21667 46.9667 7.70001 53.7667 17 63C28.3 74.3333 35.9667 80 40 80C44 80 51.6667 74.3333 63 63C72.3 53.7667 77.8 46.9667 79.5 42.6C79.5667 42.4333 79.6167 42.2667 79.65 42.1C78.2833 37.8 72.7333 30.7667 63 21Z" fill="url(#paint0_linear_12_28)"/>
<path d="M63 17C51.6667 5.66667 44 0 40 0C36 0 28.3333 5.66667 17 17C5.66667 28.4 0 36.0667 0 40C0 40.6 0.116665 41.2833 0.349998 42.05C1.78333 37.75 7.33333 30.7333 17 21C28.3333 9.66667 36 4 40 4C44 4 51.6667 9.66667 63 21C72.7333 30.7667 78.2833 37.8 79.65 42.1C79.8833 41.3 80 40.6 80 40C80 36.0667 74.3333 28.4 63 17Z" fill="url(#paint1_linear_12_28)"/>
<path d="M25.1615 32.5667C22.3949 32.5667 20.0449 33.55 18.1115 35.5167C16.1449 37.4833 15.1615 39.8333 15.1615 42.5667C15.1615 45.3333 16.1449 47.6833 18.1115 49.6167C20.0449 51.5833 22.3949 52.5667 25.1615 52.5667C27.9282 52.5667 30.2782 51.5833 32.2115 49.6167C34.1782 47.6833 35.1615 45.3333 35.1615 42.5667C35.1615 39.8333 34.1782 37.4833 32.2115 35.5167C30.2782 33.55 27.9282 32.5667 25.1615 32.5667Z" fill="white"/>
<path d="M25.1616 36.5667C23.5282 36.5667 22.1282 37.1667 20.9616 38.3667C19.7616 39.5333 19.1616 40.9333 19.1616 42.5667C19.1616 44.2333 19.7616 45.65 20.9616 46.8167C22.1282 47.9833 23.5282 48.5667 25.1616 48.5667C26.8282 48.5667 28.2449 47.9833 29.4116 46.8167C30.5782 45.65 31.1616 44.2333 31.1616 42.5667C31.1616 40.9333 30.5782 39.5333 29.4116 38.3667C28.2449 37.1667 26.8282 36.5667 25.1616 36.5667Z" fill="#3D465D"/>
<path d="M55.1616 32.5667C52.3949 32.5667 50.0449 33.55 48.1116 35.5167C46.1449 37.4833 45.1616 39.8333 45.1616 42.5667C45.1616 45.3333 46.1449 47.6833 48.1116 49.6167C50.0449 51.5833 52.3949 52.5667 55.1616 52.5667C57.9282 52.5667 60.2782 51.5833 62.2116 49.6167C64.1782 47.6833 65.1616 45.3333 65.1616 42.5667C65.1616 39.8333 64.1782 37.4833 62.2116 35.5167C60.2782 33.55 57.9282 32.5667 55.1616 32.5667Z" fill="white"/>
<path d="M55.1616 36.5667C53.5282 36.5667 52.1282 37.1667 50.9616 38.3667C49.7616 39.5333 49.1616 40.9333 49.1616 42.5667C49.1616 44.2333 49.7616 45.65 50.9616 46.8167C52.1282 47.9833 53.5282 48.5667 55.1616 48.5667C56.8282 48.5667 58.2449 47.9833 59.4116 46.8167C60.5782 45.65 61.1616 44.2333 61.1616 42.5667C61.1616 40.9333 60.5782 39.5333 59.4116 38.3667C58.2449 37.1667 56.8282 36.5667 55.1616 36.5667Z" fill="#3D465D"/>
<path d="M12.5115 25.2667C11.9449 25.4 11.5449 25.7 11.3115 26.1667C11.0115 26.6333 10.9282 27.15 11.0615 27.7167L12.1115 31.5667C12.2449 32.1333 12.5615 32.5333 13.0615 32.7667C13.4949 33.0667 13.9949 33.15 14.5615 33.0167L33.8615 27.8167C34.3949 27.6833 34.8115 27.3667 35.1115 26.8667C35.3782 26.4333 35.4449 25.9333 35.3115 25.3667L34.2615 21.5167C34.1282 20.95 33.8282 20.5333 33.3615 20.2667C32.8615 20 32.3449 19.9333 31.8115 20.0667L12.5115 25.2667Z" fill="#3D465D"/>
<path d="M48.5116 20.0667C47.9782 19.9333 47.4616 20 46.9616 20.2667C46.4949 20.5333 46.1949 20.95 46.0616 21.5167L45.0116 25.3667C44.8782 25.9333 44.9449 26.4333 45.2116 26.8667C45.5116 27.3667 45.9282 27.6833 46.4616 27.8167L65.7616 33.0167C66.3282 33.15 66.8282 33.0667 67.2616 32.7667C67.7616 32.5333 68.0782 32.1333 68.2116 31.5667L69.2616 27.7167C69.3949 27.15 69.3116 26.6333 69.0116 26.1667C68.7782 25.7 68.3782 25.4 67.8116 25.2667L48.5116 20.0667Z" fill="#3D465D"/>
<path d="M49.5115 58.0667C49.1448 57.7667 48.7615 57.4667 48.3615 57.1667C46.0948 55.4333 43.3615 54.5667 40.1615 54.5667C36.8948 54.5667 34.1115 55.4333 31.8115 57.1667C31.8115 57.2 31.7948 57.2167 31.7615 57.2167C31.3282 57.55 30.9615 57.9 30.6615 58.2667C30.2948 58.6667 30.1282 59.15 30.1615 59.7167C30.1948 60.25 30.4282 60.7 30.8615 61.0667C31.2615 61.4333 31.7448 61.6 32.3115 61.5667C32.8448 61.5333 33.2948 61.3167 33.6615 60.9167C33.8282 60.7167 34.0115 60.5333 34.2115 60.3667C35.8448 59.1667 37.8282 58.5667 40.1615 58.5667C42.4282 58.5667 44.3615 59.1667 45.9615 60.3667L46.0115 60.4167C46.3115 60.6167 46.5948 60.8333 46.8615 61.0667C47.2615 61.4333 47.7448 61.6 48.3115 61.5667C48.8448 61.5333 49.2948 61.3167 49.6615 60.9167C50.0282 60.4833 50.1948 60 50.1615 59.4667C50.1282 58.9 49.9115 58.4333 49.5115 58.0667Z" fill="#3D465D"/>
<defs>
<linearGradient id="paint0_linear_12_28" x1="-230" y1="-1.09798e-07" x2="-230" y2="80" gradientUnits="userSpaceOnUse">
<stop stop-color="#FFCD59"/>
<stop offset="1" stop-color="#F7A41B"/>
</linearGradient>
<linearGradient id="paint1_linear_12_28" x1="-230.25" y1="-0.25" x2="-230.25" y2="43.25" gradientUnits="userSpaceOnUse">
<stop stop-color="#FFE383"/>
<stop offset="1" stop-color="#FFB43C"/>
</linearGradient>
</defs>
</svg>
