<svg width="79" height="76" viewBox="0 0 79 76" fill="none" xmlns="http://www.w3.org/2000/svg">
<path d="M76.05 72.05H60.05C58.45 73.95 55.95 74.95 52.55 75.05H68.4C71.8667 74.9833 74.4167 73.9833 76.05 72.05ZM62.05 52.05V55.05H78.05V52.05H62.05ZM62.05 62.05V65.05H78.05V62.05H62.05ZM56.8 42.8C58.1334 43.3 59.2167 44.05 60.05 45.05H76.05C75.2167 44.05 74.1334 43.3 72.8 42.8C71.5667 42.3333 70.1 42.0833 68.4 42.05H52.55C54.1834 42.0833 55.6 42.3333 56.8 42.8Z" fill="#545454"/>
<path d="M62.05 55.05V62.05H78.05V55.05H62.05ZM62.05 51.95V52.05H78.05V51.95C78.05 48.9833 77.3834 46.6833 76.05 45.05H60.05C61.3834 46.6833 62.05 48.9833 62.05 51.95ZM62.05 65.1C62.05 68.1 61.3834 70.4167 60.05 72.05H76.05C77.3834 70.4167 78.05 68.1 78.05 65.1V65.05H62.05V65.1Z" fill="#464646"/>
<path d="M60.05 45.05C59.2167 44.05 58.1334 43.3 56.8 42.8C55.6 42.3333 54.1834 42.0833 52.55 42.05H37.05C30.3834 42.05 27.05 45.35 27.05 51.95V65.1C27.05 71.7333 30.3834 75.05 37.05 75.05H52.55C55.95 74.95 58.45 73.95 60.05 72.05C61.3834 70.4167 62.05 68.1 62.05 65.1V65.05V62.05V55.05V52.05V51.95C62.05 48.9833 61.3834 46.6833 60.05 45.05ZM55 47.45L55.05 47.5C56.3834 48.2333 57.05 49.7167 57.05 51.95V65.1C57.05 68.2333 55.55 69.8833 52.55 70.05H37.05C33.7167 70.05 32.05 68.4 32.05 65.1V51.95C32.05 48.6833 33.7167 47.05 37.05 47.05H52.5C53.4667 47.0833 54.3 47.2167 55 47.45Z" fill="#333333"/>
<path d="M55.05 47.5L55 47.45C54.3 47.2167 53.4667 47.0833 52.5 47.05H37.05C33.7167 47.05 32.05 48.6833 32.05 51.95V65.1C32.05 68.4 33.7167 70.05 37.05 70.05H52.55C55.55 69.8833 57.05 68.2333 57.05 65.1V51.95C57.05 49.7167 56.3834 48.2333 55.05 47.5Z" fill="#191919"/>
<path d="M49 3C47.4333 1.1 44.9833 0.1 41.65 0H9.4C8.9 0 8.43333 0.0333318 8 0.0999985C2.66667 0.733332 0 4.03333 0 10V12.45C0.053776 10.3809 0.470443 8.66419 1.25 7.3C2.15 5.53333 3.6 4.31667 5.6 3.65C6 3.51667 6.4 3.4 6.8 3.3C7.2 3.2 7.6 3.13333 8 3.1C8.43333 3.03333 8.9 3 9.4 3H49ZM78 12.65C77.9 7.88333 76.05 4.88333 72.45 3.65C71.1833 3.21667 69.7 3 68 3H49C50.2667 4.6 50.9333 6.8 51 9.6V54.4C50.8667 60.6 47.75 63.8 41.65 64H68C74.5333 64 77.8667 60.8 78 54.4V12.65Z" fill="#A4B4C6"/>
<path d="M74.3542 41.5042C74.7542 41.1375 74.9708 40.6875 75.0042 40.1542C75.0375 39.5875 74.8708 39.1042 74.5042 38.7042C74.1375 38.2708 73.6875 38.0375 73.1542 38.0042C72.5875 37.9708 72.1042 38.1375 71.7042 38.5042C71.4375 38.7375 71.1542 38.9708 70.8542 39.2042H70.8042C69.2042 40.4042 67.2708 41.0042 65.0042 41.0042C62.6708 41.0042 60.6875 40.4042 59.0542 39.2042C58.8542 39.0375 58.6708 38.8708 58.5042 38.7042C58.1375 38.2708 57.6875 38.0375 57.1542 38.0042C56.5875 37.9708 56.1042 38.1375 55.7042 38.5042C55.2708 38.8708 55.0375 39.3375 55.0042 39.9042C54.9708 40.4375 55.1375 40.9208 55.5042 41.3542C55.8042 41.6875 56.1708 42.0208 56.6042 42.3542C56.6375 42.3542 56.6542 42.3708 56.6542 42.4042C58.9542 44.1375 61.7375 45.0042 65.0042 45.0042C68.2042 45.0042 70.9375 44.1542 73.2042 42.4542V42.4042C73.6042 42.1042 73.9875 41.8042 74.3542 41.5042Z" fill="#616F7F"/>
<path d="M51 9.6C50.9333 6.8 50.2667 4.6 49 3H9.4C8.9 3 8.43333 3.03333 8 3.1C7.6 3.13333 7.2 3.2 6.8 3.3C6.4 3.4 6 3.51667 5.6 3.65C3.6 4.31667 2.15 5.53333 1.25 7.3C0.470443 8.66419 0.053776 10.3809 0 12.45V54.4C0.133333 60.1 2.8 63.2667 8 63.9C8.43333 63.9667 8.9 64 9.4 64H41.65C47.75 63.8 50.8667 60.6 51 54.4V9.6Z" fill="#94A2B1"/>
<path d="M72.45 3.65C76.05 4.88333 77.9 7.88333 78 12.65V10C78 3.33333 74.6667 0 68 0H41.65C44.9834 0.1 47.4334 1.1 49 3H68C69.7 3 71.1834 3.21667 72.45 3.65Z" fill="#BBCADB"/>
<path d="M49.05 72.05H33.05C31.45 73.95 28.95 74.95 25.55 75.05H41.4C44.8667 74.9833 47.4167 73.9833 49.05 72.05ZM35.05 62.05V65.05H51.05V62.05H35.05ZM51.05 55.05V52.05H35.05V55.05H51.05ZM33.05 45.05H49.05C48.2167 44.05 47.1334 43.3 45.8 42.8C44.5667 42.3333 43.1 42.0833 41.4 42.05H25.55C27.1834 42.0833 28.6 42.3333 29.8 42.8C31.1334 43.3 32.2167 44.05 33.05 45.05Z" fill="#545454"/>
<path d="M51.05 62.05V55.05H35.05V62.05H51.05ZM35.05 65.1C35.05 68.1 34.3834 70.4167 33.05 72.05H49.05C50.3834 70.4167 51.05 68.1 51.05 65.1V65.05H35.05V65.1ZM49.05 45.05H33.05C34.3834 46.6833 35.05 48.9833 35.05 51.95V52.05H51.05V51.95C51.05 48.9833 50.3834 46.6833 49.05 45.05Z" fill="#464646"/>
<path d="M0.0500488 51.95V65.1C0.0500488 71.7333 3.38338 75.05 10.05 75.05H25.55C28.95 74.95 31.45 73.95 33.05 72.05C34.3834 70.4167 35.05 68.1 35.05 65.1V65.05V62.05V55.05V52.05V51.95C35.05 48.9833 34.3834 46.6833 33.05 45.05C32.2167 44.05 31.1334 43.3 29.8 42.8C28.6 42.3333 27.1834 42.0833 25.55 42.05H10.05C3.38338 42.05 0.0500488 45.35 0.0500488 51.95ZM10.05 70.05C6.71672 70.05 5.05005 68.4 5.05005 65.1V51.95C5.05005 48.6833 6.71672 47.05 10.05 47.05H25.5C26.4667 47.0833 27.3 47.2167 28 47.45L28.05 47.5C29.3834 48.2333 30.05 49.7167 30.05 51.95V65.1C30.05 68.2333 28.55 69.8833 25.55 70.05H10.05Z" fill="#333333"/>
<path d="M5.05005 65.1C5.05005 68.4 6.71672 70.05 10.05 70.05H25.55C28.55 69.8833 30.05 68.2333 30.05 65.1V51.95C30.05 49.7167 29.3834 48.2333 28.05 47.5L28 47.45C27.3 47.2167 26.4667 47.0833 25.5 47.05H10.05C6.71672 47.05 5.05005 48.6833 5.05005 51.95V65.1Z" fill="#191919"/>
<path d="M26.05 59.05C26.05 57.6833 25.7167 56.5167 25.05 55.55C24.35 54.55 23.5167 54.05 22.55 54.05C21.6167 54.05 20.7834 54.55 20.05 55.55C19.3834 56.5167 19.05 57.6833 19.05 59.05C19.05 60.4167 19.3834 61.6 20.05 62.6C20.7834 63.5667 21.6167 64.05 22.55 64.05C23.5167 64.05 24.35 63.5667 25.05 62.6C25.7167 61.6 26.05 60.4167 26.05 59.05ZM9.05005 59.05C9.05005 60.4167 9.38338 61.6 10.05 62.6C10.7834 63.5667 11.6167 64.05 12.55 64.05C13.5167 64.05 14.35 63.5667 15.05 62.6C15.7167 61.6 16.05 60.4167 16.05 59.05C16.05 57.6833 15.7167 56.5167 15.05 55.55C14.35 54.55 13.5167 54.05 12.55 54.05C11.6167 54.05 10.7834 54.55 10.05 55.55C9.38338 56.5167 9.05005 57.6833 9.05005 59.05Z" fill="#545454"/>
<path d="M61.05 29.55C61.05 28.5833 60.7167 27.75 60.05 27.05C59.35 26.3833 58.5334 26.05 57.6001 26.05H57.5C56.5667 26.05 55.75 26.3833 55.05 27.05C54.3834 27.75 54.05 28.5833 54.05 29.55C54.05 30.5167 54.3834 31.3333 55.05 32C55.75 32.7 56.5667 33.05 57.5 33.05H57.6001C58.5334 33.05 59.35 32.7 60.05 32C60.7167 31.3333 61.05 30.5167 61.05 29.55ZM76.05 29.55C76.05 28.5833 75.7167 27.75 75.05 27.05C74.35 26.3833 73.5334 26.05 72.6001 26.05H72.5C71.5667 26.05 70.75 26.3833 70.05 27.05C69.3834 27.75 69.05 28.5833 69.05 29.55C69.05 30.5167 69.3834 31.3333 70.05 32C70.75 32.7 71.5667 33.05 72.5 33.05H72.6001C73.5334 33.05 74.35 32.7 75.05 32C75.7167 31.3333 76.05 30.5167 76.05 29.55Z" fill="white"/>
<path d="M21.05 36.05V26.05H18.05V36.05H21.05ZM16.05 36.05V26.05H13.05V36.05H16.05ZM11.05 26.05H8.05005V36.05H11.05V26.05Z" fill="#758391"/>
</svg>
