<svg width="68" height="87" viewBox="0 0 68 87" fill="none" xmlns="http://www.w3.org/2000/svg">
<path d="M31.75 76.55L31.2 70.65C30.9759 68.476 30.1093 66.676 28.6 65.25C27.1524 63.9167 25.469 63.25 23.55 63.25H23.5C21.5719 63.25 19.9052 63.9167 18.5 65.25C17.0324 66.676 16.2158 68.476 16.05 70.65L15.65 76.55H31.75Z" fill="#B8824D"/>
<path d="M32.15 80.25L31.75 76.55H15.65L15.4 80.2V80.25H32.1H32.15Z" fill="#9F7042"/>
<path d="M32.7 86.25L32.1 80.25H15.4V80.2C14.2257 80.9057 13.0923 82.0223 12 83.55L11.75 86.25H32.7Z" fill="#D4D0C9"/>
<path d="M36.9 76.55L37.45 70.65C37.6741 68.476 38.5408 66.676 40.05 65.25C41.4977 63.9167 43.181 63.25 45.1 63.25H45.15C47.0781 63.25 48.7448 63.9167 50.15 65.25C51.6176 66.676 52.4342 68.476 52.6 70.65L53 76.55H36.9Z" fill="#B8824D"/>
<path d="M36.5 80.25L36.9 76.55H53L53.25 80.2V80.25H36.55H36.5Z" fill="#9F7042"/>
<path d="M35.95 86.25L36.55 80.25H53.25V80.2C54.4244 80.9057 55.5577 82.0223 56.65 83.55L56.9 86.25H35.95Z" fill="#D4D0C9"/>
<path d="M17.2999 67.45C17.9245 69.1964 19.0912 70.563 20.7999 71.55C30.2999 69.9689 39.7999 69.9689 49.2999 71.55C50.5665 70.4416 51.4831 69.0749 52.0499 67.45C40.6129 66.2518 29.0296 66.2518 17.2999 67.45Z" fill="#D9D6BF"/>
<path d="M52.7 60.85C51.7721 54.7214 52.3221 47.9547 54.35 40.55H15.35C17.9186 47.7175 18.4853 54.7342 17.05 61.6C16.6751 63.8778 16.7584 65.8278 17.3 67.45C29.0297 66.2519 40.613 66.2519 52.05 67.45C52.7211 65.5951 52.9377 63.3951 52.7 60.85Z" fill="#3498DB"/>
<path d="M48.6 45.95C48.3666 45.6833 48.1333 45.4167 47.9 45.15C47.8333 45.05 47.7333 45 47.6 45C47.5 45 47.4 45.0333 47.3 45.1C47.2 45.1667 47.15 45.2667 47.15 45.4C47.0833 45.5 47.0833 45.6167 47.15 45.75C47.5833 46.7167 47.6166 47.7167 47.25 48.75V48.7C46.6833 50.1667 45.5 51.2167 43.7 51.85C41.9 52.45 39.9833 52.4833 37.95 51.95C37.7833 51.85 37.6 51.7833 37.4 51.75C37.3 51.7167 37.2166 51.7333 37.15 51.8C37.0166 51.8667 36.9333 51.95 36.9 52.05C36.8666 52.15 36.8666 52.2667 36.9 52.4C36.9 52.5 36.95 52.5833 37.05 52.65C37.9166 53.35 39 53.9 40.3 54.3H40.25C42.2833 54.9667 44.2166 55 46.05 54.4C47.9166 53.7333 49.1166 52.55 49.65 50.85V50.9C50.15 49.3 49.8 47.65 48.6 45.95ZM22.5 46.3C22.4 46.3 22.3166 46.35 22.25 46.45C21.95 46.75 21.7333 47.05 21.6 47.35C20.3333 49.1167 19.9833 50.7833 20.55 52.35V52.3C21.0166 54 22.2 55.0667 24.1 55.5C25.9333 55.9333 27.8833 55.7 29.95 54.8C31.15 54.2667 32.2 53.6167 33.1 52.85C33.2 52.7833 33.2666 52.7 33.3 52.6C33.3 52.4667 33.2833 52.35 33.25 52.25C33.2166 52.15 33.15 52.0667 33.05 52C32.9166 51.9333 32.8166 51.9167 32.75 51.95C32.55 51.9833 32.3833 52.05 32.25 52.15C30.1833 52.95 28.2333 53.1333 26.4 52.7C24.6333 52.2667 23.4666 51.3667 22.9 50C22.5333 49.0333 22.55 48.0333 22.95 47C22.9833 46.9 23 46.8 23 46.7C22.9666 46.5667 22.9166 46.4667 22.85 46.4C22.75 46.3333 22.6333 46.3 22.5 46.3Z" fill="#2E88C4"/>
<path d="M6.18713 53.5497L3.31763 64.646C4.78789 66.4799 6.72378 67.9484 9.12531 69.0516C11.3425 64.5627 14.3362 60.5377 18.1062 56.9768L6.18713 53.5497Z" fill="#FFE0B1"/>
<path d="M18.1063 56.9767C18.5714 56.5593 19.0457 56.1414 19.5292 55.723L7.0614 50.0935L6.18717 53.5496L18.1063 56.9767Z" fill="#FCF7EE"/>
<path d="M19.5293 55.723L19.9889 55.9396L21.1608 53.4975L6.95117 47.0276C6.02061 47.152 5.62607 47.9805 5.76755 49.5133L7.06146 50.0935L19.5293 55.723Z" fill="#2E88C4"/>
<path d="M22.8116 45.0176C22.0407 43.1294 20.6678 41.7494 18.6928 40.8777L18.6445 40.8647C18.2737 40.7031 17.9112 40.5748 17.557 40.4799C14.3284 39.5215 10.7931 41.704 6.95113 47.0276L21.1608 53.4975L22.6294 50.5277C23.514 48.7716 23.5748 46.9349 22.8116 45.0176Z" fill="#3498DB"/>
<path d="M16.4981 71.7557L16.511 71.7074C19.2578 69.441 18.5065 66.5135 14.2572 62.9249C15.4553 64.7643 16.2069 67.433 16.5119 70.9312L16.4981 71.7557ZM4.20419 66.443C4.19095 66.75 4.61152 66.9835 5.46591 67.1434C6.2881 67.2946 7.29832 67.3237 8.49656 67.2307C9.72699 67.1462 10.7611 66.9574 11.5988 66.6643C12.428 66.4033 12.8491 66.1193 12.8624 65.8123C12.8992 65.546 12.4904 65.333 11.636 65.1731C10.8374 65.0626 9.82719 65.0335 8.60538 65.0858C7.40714 65.1788 6.39346 65.3558 5.56434 65.6168C4.70302 65.8692 4.24964 66.1445 4.20419 66.443Z" fill="#E7CBA0"/>
<path d="M16.511 71.7074L16.498 71.7557L16.5119 70.9312C16.2068 67.4331 15.4552 64.7643 14.2571 62.9249L4.276 62.8905C3.4515 62.8767 3.02484 63.2455 2.99604 63.997L2.99859 64.5671C2.64957 72.8247 4.85197 76.9692 9.6058 77.0006C11.287 77.037 13.0082 76.8597 14.7693 76.4689C15.9377 76.2298 16.5288 75.698 16.5427 74.8735L16.5591 74.619C16.5517 73.6163 16.5356 72.6457 16.511 71.7074ZM5.46588 67.1434C4.61149 66.9835 4.19092 66.75 4.20416 66.443C4.24961 66.1446 4.70299 65.8692 5.56431 65.6168C6.39343 65.3559 7.40711 65.1789 8.60535 65.0858C9.82716 65.0336 10.8374 65.0627 11.636 65.1731C12.4904 65.333 12.8992 65.5461 12.8624 65.8123C12.8491 66.1193 12.4279 66.4033 11.5988 66.6643C10.7611 66.9575 9.72696 67.1463 8.49653 67.2307C7.29829 67.3238 6.28807 67.2947 5.46588 67.1434Z" fill="#FFE0B1"/>
<path d="M60.9629 52.5497L63.8324 63.646C62.3621 65.4799 60.4262 66.9484 58.0247 68.0516C55.8075 63.5627 52.8139 59.5377 49.0438 55.9768L60.9629 52.5497Z" fill="#FFE0B1"/>
<path d="M49.0437 55.9767C48.5786 55.5593 48.1043 55.1414 47.6208 54.723L60.0886 49.0935L60.9629 52.5496L49.0437 55.9767Z" fill="#FCF7EE"/>
<path d="M47.6207 54.723L47.1611 54.9396L45.9892 52.4975L60.1989 46.0276C61.1294 46.152 61.524 46.9805 61.3825 48.5133L60.0886 49.0935L47.6207 54.723Z" fill="#2E88C4"/>
<path d="M44.3384 44.0176C45.1093 42.1294 46.4823 40.7494 48.4573 39.8777L48.5056 39.8647C48.8764 39.7031 49.2389 39.5748 49.593 39.4799C52.8216 38.5215 56.3569 40.704 60.1989 46.0276L45.9892 52.4975L44.5206 49.5277C43.636 47.7716 43.5752 45.9349 44.3384 44.0176Z" fill="#3498DB"/>
<path d="M50.702 71.2056L50.6891 71.1573C47.9423 68.891 48.6936 65.9635 52.9429 62.3748C51.7448 64.2142 50.9932 66.883 50.6882 70.3811L50.702 71.2056ZM62.9959 65.8929C63.0091 66.1999 62.5886 66.4334 61.7342 66.5933C60.912 66.7446 59.9018 66.7737 58.7035 66.6806C57.4731 66.5962 56.439 66.4074 55.6012 66.1142C54.7721 65.8532 54.3509 65.5692 54.3377 65.2622C54.3009 64.996 54.7097 64.7829 55.564 64.623C56.3627 64.5126 57.3729 64.4835 58.5947 64.5357C59.7929 64.6288 60.8066 64.8058 61.6357 65.0668C62.4971 65.3191 62.9504 65.5945 62.9959 65.8929Z" fill="#E7CBA0"/>
<path d="M50.6891 71.1573L50.702 71.2056L50.6882 70.3811C50.9932 66.883 51.7448 64.2142 52.9429 62.3748L62.9241 62.3405C63.7486 62.3266 64.1752 62.6954 64.204 63.4469L64.2015 64.017C64.5505 72.2747 62.3481 76.4192 57.5943 76.4506C55.9131 76.4869 54.1919 76.3097 52.4307 75.9188C51.2624 75.6797 50.6713 75.1479 50.6574 74.3234L50.641 74.069C50.6484 73.0662 50.6644 72.0957 50.6891 71.1573ZM61.7342 66.5933C62.5886 66.4334 63.0092 66.2 62.9959 65.8929C62.9505 65.5945 62.4971 65.3191 61.6358 65.0668C60.8066 64.8058 59.793 64.6288 58.5947 64.5357C57.3729 64.4835 56.3627 64.5126 55.5641 64.6231C54.7097 64.783 54.3009 64.996 54.3377 65.2622C54.351 65.5693 54.7721 65.8533 55.6013 66.1142C56.439 66.4074 57.4731 66.5962 58.7035 66.6807C59.9018 66.7737 60.912 66.7446 61.7342 66.5933Z" fill="#FFE0B1"/>
<path d="M25.15 15.2C26.8833 13.4667 27.75 11.3667 27.75 8.9C27.75 6.43333 26.8833 4.33333 25.15 2.6C23.4166 0.866665 21.3166 0 18.85 0C16.3833 0 14.2833 0.866665 12.5499 2.6C10.8166 4.33333 9.94995 6.43333 9.94995 8.9C9.94995 11.3667 10.8166 13.4667 12.5499 15.2C14.2833 16.9333 16.3833 17.8 18.85 17.8C21.3166 17.8 23.4166 16.9333 25.15 15.2Z" fill="#9F7042"/>
<path d="M26.55 43.7C28.5166 45 30.9 45.65 33.7 45.65C36.5 45.65 38.8833 45 40.85 43.7C42.0166 42.9333 42.8333 42.0666 43.3 41.1H24.1C24.5666 42.0666 25.3833 42.9333 26.55 43.7Z" fill="#D7BD93"/>
<path d="M53 15.9C52.5666 12.9333 50.8333 10.05 47.8 7.24998C38.5694 -1.33023 28.486 0.0697689 17.55 11.45C14.6166 11.45 12.9166 12.9666 12.45 16C11.8224 20.3179 11.5224 24.0346 11.55 27.15C13.7987 33.4275 17.982 38.0774 24.1 41.1H43.3C48.5642 38.413 52.0642 34.0797 53.8 28.1C53.8923 24.0918 53.6256 20.0251 53 15.9Z" fill="#FFE0B1"/>
<path d="M25.45 24.45C26.05 23.7834 26.8 23.4167 27.7 23.35L22.35 23.15L24.4 27.95C24.3666 27.6834 24.35 27.4167 24.35 27.15C24.35 26.1167 24.7166 25.2167 25.45 24.45ZM44.5 23.35C45.4 23.4167 46.15 23.7834 46.75 24.45C47.4833 25.2167 47.85 26.1167 47.85 27.15C47.85 27.4167 47.8333 27.6834 47.8 27.95L49.85 23.15L44.5 23.35Z" fill="#BFA984"/>
<path d="M28 23.35C27.9 23.35 27.8 23.35 27.7 23.35C26.8 23.4166 26.05 23.7833 25.45 24.45C24.7166 25.2166 24.35 26.1166 24.35 27.15C24.35 27.4166 24.3666 27.6833 24.4 27.95C24.5666 28.65 24.9166 29.2666 25.45 29.8C26.1166 30.5666 26.9666 30.95 28 30.95C29.0333 30.95 29.9166 30.5666 30.65 29.8C31.3166 29.0666 31.65 28.1833 31.65 27.15C31.65 26.1166 31.3166 25.2166 30.65 24.45C29.9166 23.7166 29.0333 23.35 28 23.35ZM26.85 27.05C26.8833 26.45 27.1 25.9333 27.5 25.5C27.9 25.0666 28.4 24.85 29 24.85C29.6 24.85 30.1166 25.0666 30.55 25.5C30.9166 25.9333 31.1166 26.45 31.15 27.05V27.3C31.1166 27.8666 30.9166 28.35 30.55 28.75C30.1166 29.2166 29.6 29.45 29 29.45C28.4 29.45 27.9 29.2166 27.5 28.75C27.1 28.35 26.8833 27.8666 26.85 27.3V27.05ZM46.75 24.45C46.15 23.7833 45.4 23.4166 44.5 23.35C44.4 23.35 44.3 23.35 44.2 23.35C43.1666 23.35 42.2833 23.7166 41.55 24.45C40.8833 25.2166 40.55 26.1166 40.55 27.15C40.55 28.1833 40.8833 29.0666 41.55 29.8C42.2833 30.5666 43.1666 30.95 44.2 30.95C45.2333 30.95 46.0833 30.5666 46.75 29.8C47.2833 29.2666 47.6333 28.65 47.8 27.95C47.8333 27.6833 47.85 27.4166 47.85 27.15C47.85 26.1166 47.4833 25.2166 46.75 24.45ZM45.35 27.05V27.3C45.3166 27.8666 45.1 28.35 44.7 28.75C44.3 29.2166 43.8 29.45 43.2 29.45C42.6 29.45 42.0833 29.2166 41.65 28.75C41.2833 28.35 41.0833 27.8666 41.05 27.3V27.05C41.0833 26.45 41.2833 25.9333 41.65 25.5C42.0833 25.0666 42.6 24.85 43.2 24.85C43.8 24.85 44.3 25.0666 44.7 25.5C45.1 25.9333 45.3166 26.45 45.35 27.05Z" fill="white"/>
<path d="M27.5 25.5C27.1 25.9333 26.8833 26.45 26.85 27.05V27.3C26.8833 27.8666 27.1 28.35 27.5 28.75C27.9 29.2166 28.4 29.45 29 29.45C29.6 29.45 30.1166 29.2166 30.55 28.75C30.9166 28.35 31.1166 27.8666 31.15 27.3V27.05C31.1166 26.45 30.9166 25.9333 30.55 25.5C30.1166 25.0666 29.6 24.85 29 24.85C28.4 24.85 27.9 25.0666 27.5 25.5ZM45.35 27.3V27.05C45.3166 26.45 45.1 25.9333 44.7 25.5C44.3 25.0666 43.8 24.85 43.2 24.85C42.6 24.85 42.0833 25.0666 41.65 25.5C41.2833 25.9333 41.0833 26.45 41.05 27.05V27.3C41.0833 27.8666 41.2833 28.35 41.65 28.75C42.0833 29.2166 42.6 29.45 43.2 29.45C43.8 29.45 44.3 29.2166 44.7 28.75C45.1 28.35 45.3166 27.8666 45.35 27.3Z" fill="#7F7058"/>
<path d="M46.6576 21.5281C47.6752 21.4625 48.5524 21.4518 49.2889 21.496C47.2045 20.1564 44.7819 19.615 42.0209 19.8716C41.6817 19.8935 41.4488 19.9904 41.3223 20.1623C41.1315 20.3515 41.0426 20.5996 41.0559 20.9066C41.0927 21.1729 41.21 21.4175 41.4078 21.6406C41.5798 21.767 43.3297 21.7295 46.6576 21.5281Z" fill="#B8824D"/>
<path d="M24.2659 21.0393C24.9766 21.0917 25.8396 21.2194 26.855 21.4225C30.1288 21.9545 31.8517 22.1573 32.0236 22.0309C32.2772 21.8572 32.4224 21.6373 32.4592 21.3711C32.5133 21.0405 32.4567 20.801 32.2893 20.6527C32.1479 20.4077 31.9441 20.2668 31.6779 20.23C28.9302 19.6664 26.4595 19.9361 24.2659 21.0393Z" fill="#B8824D"/>
<path d="M25.55 34.45C26.0833 34.0167 26.35 33.5167 26.35 32.95C26.35 32.3167 26.0833 31.7833 25.55 31.35C25.0833 30.95 24.5166 30.75 23.85 30.75C23.15 30.75 22.55 30.95 22.05 31.35C21.5833 31.7833 21.35 32.3167 21.35 32.95C21.35 33.5167 21.5833 34.0167 22.05 34.45C22.55 34.8833 23.15 35.1 23.85 35.1C24.5166 35.1 25.0833 34.8833 25.55 34.45Z" fill="white" fill-opacity="0.301961"/>
<path d="M50.0999 34.45C50.6332 34.0167 50.8999 33.5167 50.8999 32.95C50.8999 32.3167 50.6332 31.7833 50.0999 31.35C49.6332 30.95 49.0666 30.75 48.3999 30.75C47.6999 30.75 47.0999 30.95 46.5999 31.35C46.1332 31.7833 45.8999 32.3167 45.8999 32.95C45.8999 33.5167 46.1332 34.0167 46.5999 34.45C47.0999 34.8833 47.6999 35.1 48.3999 35.1C49.0666 35.1 49.6332 34.8833 50.0999 34.45Z" fill="white" fill-opacity="0.301961"/>
<path d="M32.2999 33.25C32.2666 33.2833 32.2332 33.35 32.1999 33.45C32.1332 33.55 32.1332 33.6833 32.1999 33.85C32.2332 34.0833 32.3166 34.3 32.4499 34.5C32.5166 34.7 32.6166 34.8666 32.7499 35H37.5499V32.95H32.8499C32.7166 32.95 32.5832 33 32.4499 33.1C32.3832 33.1333 32.3332 33.1833 32.2999 33.25Z" fill="white"/>
<path d="M40.1999 33.85C40.2332 33.6833 40.2165 33.55 40.1499 33.45C40.1499 33.4166 40.1499 33.3833 40.1499 33.35C40.1165 33.3166 40.0832 33.2833 40.0499 33.25C40.0165 33.1833 39.9832 33.15 39.9499 33.15L39.8999 33.1C39.7665 33 39.6332 32.95 39.4999 32.95H37.5499V35H32.7499C32.8832 35.2333 33.0499 35.45 33.2499 35.65C34.0165 36.4166 34.9165 36.8166 35.9499 36.85H36.3499C37.4165 36.8166 38.3165 36.4166 39.0499 35.65H39.0999C39.4332 35.2833 39.6999 34.9 39.8999 34.5C40.0332 34.3 40.1332 34.0833 40.1999 33.85Z" fill="#7F7058"/>
<path d="M41.2 1.1C39.0333 0.499998 37.2 0.399999 35.7 0.799999C33.6666 0.199999 31.65 -0.0500008 29.65 0.0499992C29.4833 0.0166659 29.3166 0 29.15 0C28.7833 0 28.4666 0.0333318 28.2 0.0999985C26.8666 0.266665 25.6166 0.566667 24.45 1C19.25 2.73333 15.1166 6.35 12.0499 11.85C10.8166 13.8833 9.91662 16.0167 9.34995 18.25C8.71662 20.2833 8.33328 22.4 8.19995 24.6C8.19995 24.8333 8.19995 25.1167 8.19995 25.45C8.29995 23.55 8.64995 21.7 9.24995 19.9C9.84995 17.7 10.7666 15.55 12 13.45C15.8 6.71667 21.2 2.78333 28.2 1.65C28.5666 1.58333 28.9333 1.56667 29.2999 1.6C31.3999 1.53333 33.5333 1.8 35.7 2.4C37.1666 1.93333 39.0166 2.01666 41.25 2.65C48.6166 4.65 53.0833 9.73333 54.6499 17.9C54.7166 18.9 54.8333 19.9333 55 21C54.9666 20.4333 54.9333 19.9 54.8999 19.4C54.7999 18.2667 54.6666 17.1833 54.5 16.15C53 8.08333 48.5666 3.06667 41.2 1.1Z" fill="#C68C53"/>
<path d="M36.2 12.7C35.8666 13.4667 35.55 14.2334 35.25 15L49.2 19.15C51.7751 20.0532 52.6251 22.3365 51.75 26C50.9503 29.6316 51.3003 33.3482 52.7999 37.15C54.0596 36.4131 54.6429 33.9797 54.5499 29.85L55.0499 21.6C55.0166 21.4 55 21.2 55 21C54.8333 19.9334 54.7166 18.9 54.6499 17.9C53.0833 9.73337 48.6166 4.65004 41.25 2.65004C39.0166 2.01671 37.1666 1.93337 35.7 2.40004C33.5333 1.80004 31.3999 1.53337 29.2999 1.60004C28.9333 1.56671 28.5666 1.58337 28.2 1.65004C21.2 2.78337 15.8 6.71671 12 13.45C10.7666 15.55 9.84995 17.7 9.24995 19.9C8.64995 21.7 8.29995 23.55 8.19995 25.45C8.19995 25.5834 8.19995 25.75 8.19995 25.95C8.62664 35.3907 11.9766 40.5073 18.25 41.3C17.5579 34.5159 19.2412 30.2326 23.3 28.45L21.3 20.5C26.9333 19.3 32.1666 15.8 37 10C37 9.93338 37.0333 9.90004 37.1 9.90004C36.7666 10.8334 36.4666 11.7667 36.2 12.7Z" fill="#B8824D"/>
<path d="M35.2499 15C35.5499 14.2334 35.8666 13.4667 36.1999 12.7C36.4666 11.7667 36.7666 10.8334 37.0999 9.90002C37.0333 9.90002 36.9999 9.93336 36.9999 10C32.1666 15.8 26.9333 19.3 21.2999 20.5L23.2999 28.45V28.55C28.3333 26.1834 32.3166 21.6667 35.2499 15Z" fill="#AD7A48"/>
</svg>
